<svg id="Capa_1" data-name="Capa 1" xmlns="http://www.w3.org/2000/svg" xmlns:xlink="http://www.w3.org/1999/xlink" viewBox="0 0 3.56 3.55"><defs><style>.cls-1{fill:url(#linear-gradient);}.cls-2{fill:url(#radial-gradient);}</style><linearGradient id="linear-gradient" x1="198.49" y1="149.78" x2="202.05" y2="149.78" gradientUnits="userSpaceOnUse"><stop offset="0" stop-color="#b47a1a"/><stop offset="0.05" stop-color="#b9811e"/><stop offset="0.13" stop-color="#c69429"/><stop offset="0.22" stop-color="#dcb33c"/><stop offset="0.32" stop-color="#fade56"/><stop offset="0.33" stop-color="#ffe55a"/><stop offset="0.52" stop-color="#ffec88"/><stop offset="0.66" stop-color="#ffe55a"/><stop offset="1" stop-color="#b47a1a"/></linearGradient><radialGradient id="radial-gradient" cx="200.27" cy="149.78" r="0.93" gradientUnits="userSpaceOnUse"><stop offset="0" stop-color="#232323"/><stop offset="0.37" stop-color="#151515"/><stop offset="1"/></radialGradient></defs><title>face</title><path class="cls-1" d="M202.05,149.78a1.78,1.78,0,1,1-1.78-1.78A1.78,1.78,0,0,1,202.05,149.78Z" transform="translate(-198.49 -148)"/><path class="cls-2" d="M199.69,149.28h.25v-.13a.85.85,0,0,1,.05-.32.35.35,0,0,1,.17-.17.57.57,0,0,1,.31-.07,1.19,1.19,0,0,1,.37.06l-.06.31a.75.75,0,0,0-.21,0c-.06,0-.11,0-.13,0a.26.26,0,0,0-.05.18v.12h.34v.35h-.34V151h-.45v-1.34h-.25Z" transform="translate(-198.49 -148)"/></svg>