<svg id="Capa_1" data-name="Capa 1" xmlns="http://www.w3.org/2000/svg" xmlns:xlink="http://www.w3.org/1999/xlink" viewBox="0 0 3.55 3.55"><defs><style>.cls-1{fill:url(#linear-gradient);}.cls-2{fill-rule:evenodd;fill:url(#radial-gradient);}</style><linearGradient id="linear-gradient" x1="198.49" y1="149.78" x2="202.05" y2="149.78" gradientUnits="userSpaceOnUse"><stop offset="0" stop-color="#b47a1a"/><stop offset="0.05" stop-color="#b9811e"/><stop offset="0.13" stop-color="#c69429"/><stop offset="0.22" stop-color="#dcb33c"/><stop offset="0.32" stop-color="#fade56"/><stop offset="0.33" stop-color="#ffe55a"/><stop offset="0.52" stop-color="#ffec88"/><stop offset="0.66" stop-color="#ffe55a"/><stop offset="1" stop-color="#b47a1a"/></linearGradient><radialGradient id="radial-gradient" cx="200.27" cy="149.78" r="0.97" gradientUnits="userSpaceOnUse"><stop offset="0" stop-color="#232323"/><stop offset="0.37" stop-color="#151515"/><stop offset="1"/></radialGradient></defs><title>insta</title><path class="cls-1" d="M202.05,149.78a1.78,1.78,0,1,1-1.78-1.78A1.78,1.78,0,0,1,202.05,149.78Z" transform="translate(-198.49 -148)"/><path class="cls-2" d="M201,148.82h-1.42c-.17,0-.26.08-.26.25v1.43a.23.23,0,0,0,.25.25H201a.23.23,0,0,0,.26-.26v-1.42C201.24,148.9,201.15,148.82,201,148.82Zm-.16.21c.19,0,.19,0,.19.2s0,.19-.18.19-.19,0-.19-.2S200.64,149,200.82,149Zm-.55.38a.38.38,0,0,1,.37.37.38.38,0,0,1-.38.38.38.38,0,1,1,0-.75Zm.74,1c0,.09,0,.12-.11.12h-1.26c-.09,0-.12,0-.12-.12v-.7c0-.07,0-.08.08-.08s.09,0,.08.09a.58.58,0,0,0,.47.64.6.6,0,0,0,.69-.41.66.66,0,0,0,0-.28s0,0,0,0,.13,0,.13.13Z" transform="translate(-198.49 -148)"/></svg>