<svg id="Layer_1" data-name="Layer 1" xmlns="http://www.w3.org/2000/svg" viewBox="0 0 40 40"><title>menu</title><path d="M256,236a20,20,0,1,0,20,20A20,20,0,0,0,256,236Zm-8,29a2.67,2.67,0,1,1,2.67-2.67A2.68,2.68,0,0,1,248,265Zm0-6.67a2.67,2.67,0,1,1,2.67-2.67A2.67,2.67,0,0,1,248,258.34Zm0-6.34a2.67,2.67,0,1,1,2.67-2.67A2.67,2.67,0,0,1,248,252Zm18.67,11.67a1.34,1.34,0,0,1-1.34,1.34H254a1.33,1.33,0,0,1-1.33-1.34V261a1.33,1.33,0,0,1,1.33-1.34h11.33a1.34,1.34,0,0,1,1.34,1.34v2.66Zm0-6.66a1.34,1.34,0,0,1-1.34,1.33H254a1.33,1.33,0,0,1-1.33-1.33v-2.67A1.32,1.32,0,0,1,254,253h11.33a1.33,1.33,0,0,1,1.34,1.33V257Zm0-6.67a1.33,1.33,0,0,1-1.34,1.33H254a1.32,1.32,0,0,1-1.33-1.33v-2.67a1.33,1.33,0,0,1,1.33-1.33h11.33a1.34,1.34,0,0,1,1.34,1.33v2.67Z" transform="translate(-236 -236)"/></svg>
