<svg id="Capa_1" data-name="Capa 1" xmlns="http://www.w3.org/2000/svg" xmlns:xlink="http://www.w3.org/1999/xlink" viewBox="0 0 5.93 5.85"><defs><style>.cls-1,.cls-2,.cls-3,.cls-4,.cls-5,.cls-6,.cls-7{fill-rule:evenodd;}.cls-1{fill:url(#linear-gradient);}.cls-2{fill:url(#linear-gradient-2);}.cls-3{fill:url(#linear-gradient-3);}.cls-4{fill:url(#linear-gradient-4);}.cls-5{fill:url(#linear-gradient-5);}.cls-6{fill:url(#linear-gradient-6);}.cls-7{fill:url(#linear-gradient-7);}</style><linearGradient id="linear-gradient" x1="200.74" y1="152.7" x2="200.77" y2="152.67" gradientUnits="userSpaceOnUse"><stop offset="0" stop-color="#e5962a"/><stop offset="0.25" stop-color="#f3ce64"/><stop offset="0.53" stop-color="#e6a130"/><stop offset="0.83" stop-color="#d98713"/><stop offset="1" stop-color="#f3ce64"/></linearGradient><linearGradient id="linear-gradient-2" x1="202.94" y1="150.17" x2="202.98" y2="150.14" xlink:href="#linear-gradient"/><linearGradient id="linear-gradient-3" x1="198.23" y1="151.83" x2="202.4" y2="147.67" xlink:href="#linear-gradient"/><linearGradient id="linear-gradient-4" x1="202.82" y1="150.72" x2="202.84" y2="150.71" xlink:href="#linear-gradient"/><linearGradient id="linear-gradient-5" x1="199.89" y1="150.64" x2="202.01" y2="148.51" xlink:href="#linear-gradient"/><linearGradient id="linear-gradient-6" x1="201.52" y1="149" x2="201.74" y2="148.78" xlink:href="#linear-gradient"/><linearGradient id="linear-gradient-7" x1="200.48" y1="150.04" x2="201.41" y2="149.11" xlink:href="#linear-gradient"/></defs><title>Sin título-1</title><path class="cls-1" d="M200.73,152.69h0s0,0,0,0Z" transform="translate(-197.3 -146.86)"/><path class="cls-2" d="M203,150.16v0h0a0,0,0,0,1,0,0v0S203,150.17,203,150.16Z" transform="translate(-197.3 -146.86)"/><path class="cls-3" d="M203.07,149.61c0-.07,0-.14,0-.21l0-.15a.44.44,0,0,0,0-.1v0a0,0,0,0,1,0,0v0a0,0,0,0,1,0,0v0l0-.08h0s0,0,0,0,0,0,0,0a.07.07,0,0,0,0,.05s0,0,0,0a.09.09,0,0,0,0,.05v0h0s0,0,0,.05v0s0,0,0,.05,0,.06,0,.07v0s0,0,0,0,0,0,0-.06a0,0,0,0,0,0,0v0l-.06-.21s0,0,0-.05l0,0h0v0l0,0a.14.14,0,0,0,0-.06c0-.05-.05-.11-.08-.15s0,0,0,0l0,0s0,0,0,0l0,0-.07-.09,0,0s0,0,0,0l0,0v0h0l0,0h0l0,0,0,0,0,0,0,0v0h0s0,0,0,0l0,0,0,0h0l0,0h0l-.18-.13h0l0,0h0l0,0,0,0h-.07l-.06,0h0l0,0h-.07l-.15-.06h-.16l-.17,0h-.19a1.2,1.2,0,0,0-.19,0h-.57l-.07,0-.15.06-.14.07a1.18,1.18,0,0,0-.19.11l0,0h0l-.05,0s0,0,0,0l-.07.06a.46.46,0,0,0-.07.07l0,0,0,0h0s0,0,0,0h0l0,0h0v0h0l-.08.05h0v0l0,0,0,0h0a0,0,0,0,1,0,0l0,0,0,0s0,0,0,0l0,0h0s0,0,0,0,0,0,0,0h0l0,.08,0,0v.05s0,.09-.06.15l0,.12a.8.8,0,0,0,0,.15v0h0v.15a1,1,0,0,0,0,.18l0,.18a.19.19,0,0,1,0,.08h0a.08.08,0,0,1,0,0,0,0,0,0,1,0,0s0,0,0,0l0,0a0,0,0,0,0,0,0,.08.08,0,0,0,0,0V150h0c0,.05,0,.1,0,.15s0,.1.05.14l0,0,0,.05s0,0,0,0l0,0a.8.8,0,0,0,.08.16l0,.06.09.12v0a1.71,1.71,0,0,0,.11.14l0,0,0,0,0,0,0,0h0l0,0,0,0,0,0,0,0h.05l0,0h0l.05,0,0,0s0,0,0,0h0s0,0,0,0a0,0,0,0,1,0,0l0,0,0,0h.13l0,0,.17,0h0l0,0,.09,0h.39a.9.9,0,0,0,.23,0h0l.08,0h.05l.12,0h.1l0,0h.11l0,0,0,0h.05l0,0,.07,0h0l.19-.13h0l0,0h.14l0,0h0l0,0s0,0,0,0v0s0,0,0,0l0,0v0l0,0,0,0s0,0-.05.05l0,0,0,0-.05.05h0s0,0,0,0a.05.05,0,0,1,0,0l0,0h0l0,0,0,0h0l0,0a.08.08,0,0,0,0,0l0,0,0,0h0s0,0,0,0l0,0h0l.06-.05h0l0,0,0,0h0l0,0s0,0,0,0l0,0,0,0s0,0,0,0l0-.05,0,0,.08-.06h0l0,0h0l0,0,0,0h0s0,0,0,0h.07l0,0s0,0,0,0h0a0,0,0,0,1,0,0,.07.07,0,0,0,0,.05s0,0,0,0,0,0,0,0h0l0,0,0,0,0,0a0,0,0,0,0,0,0v0a.59.59,0,0,1,0-.08s0,0,0,0a.06.06,0,0,0,0,0h0v0h0v-.17a.24.24,0,0,1,0-.08.05.05,0,0,1,0,0v0a.13.13,0,0,0,0-.06.13.13,0,0,0,0-.06v0h0v0h0a.06.06,0,0,0,0,0v0a0,0,0,0,0,0,0v-.11h0v0h0v0h0v0h0a0,0,0,0,1,0,0h0s0,0,0,0h0s0,.07,0,.08v0s0,0,0,0v0h0s0,0,0,.08v0s0,0,0,0V150h0a.13.13,0,0,1,0,.06.22.22,0,0,0,0,.08v.05a.13.13,0,0,1,0,.06v0s0,0,0,.06v0h0a.06.06,0,0,0,0,0,0,0,0,0,1,0,0s0,0,0,.05v0h0s0,0,0,0v0s0,0,0,0h0v0h0s0,0,0,0h0v0s0-.05,0-.07h0a.23.23,0,0,1,0,.07v0a.43.43,0,0,0,0,.05l0,0s0,0,0,0a.1.1,0,0,0,0,0h0s0,0,0,.05h0l0,.05a.06.06,0,0,0,0,0,.08.08,0,0,1,0,0h0s0,0,0,0a.36.36,0,0,1,0,.09l0,.07s0,0,0,.05,0,0,0,0v0l0,0,0,0,0,0s0,0,0,0l0,0s0,0,0,0,0,0,0,0a1,1,0,0,1-.13.16l0,.05-.06.06,0,0s0,0,0,.06h0l0,0,0,0,0,0h0l0,0,0,0,0,0-.06.05,0,0h0s0,0,0,0h0l-.09.07-.06,0-.08,0,0,0,0,0h0l0,0h0s0,0,0,0h0s0,0,0,0h-.08l0,0-.23.09-.05,0h0l0,0-.07,0H201s0,0,0,0h-.54a.06.06,0,0,1-.06,0H200a.83.83,0,0,1-.13,0h-.28l-.06,0h-.13l0,0,0,0h0l0,0h0l-.05,0h0l-.07,0,0,0,0,0h0l-.05,0-.06,0,0,0,0,0,0,0a.05.05,0,0,0,0,0l0,0-.1-.07-.21-.16,0,0-.06-.06-.06,0s0,0,0-.05l-.05-.05-.12-.14a1.73,1.73,0,0,1-.15-.2l-.06-.08,0,0,0-.05,0-.06s0,0,0,0l0-.05,0,0,0-.06,0-.07s0,0,0,0l0,0s0,0,0,0l0-.07,0-.07a.06.06,0,0,1,0,0l0,0,0-.07s0-.06,0-.08a.24.24,0,0,1,0-.08.3.3,0,0,1,0-.1s0,0,0,0,0,0,0,0,0-.05,0-.08v-.07s0-.05,0-.07v-.07s0,0,0,0v-.14c0-.07,0-.15,0-.24a2.28,2.28,0,0,1,0-.26.25.25,0,0,0,0-.08.13.13,0,0,1,0-.06V149a.52.52,0,0,0,0-.11s0,0,0-.06a.14.14,0,0,1,0-.07.29.29,0,0,0,0-.09.64.64,0,0,0,0-.07l0,0s0,0,0,0v0l0,0,0,0h0a0,0,0,0,0,0,0h0l0-.06v0l0,0,0-.05,0,0,0-.05,0,0s0,0,0,0v0l0,0h0v0h0l0-.06a.35.35,0,0,0,.05-.08s0,0,0,0h0l0,0h0s0,0,0,0v0s0,0,0,0a.09.09,0,0,1,0,.06s0,.05,0,0h0s0,0,0,0,0,0,0,0l0,.06,0,.07v0l0,0a.14.14,0,0,1,0,.06h0a.42.42,0,0,0,0,.06s0,0,0,0h0s0,0,0,0,0,0,0,0h0v0h0s0,0,0,0v0h0s0,0,0,0v0l0-.07,0-.06a.08.08,0,0,0,0,0v0l0,0a.17.17,0,0,1,0-.05l.05-.09,0,0v0l.09-.13s0,0,0,0h0l0-.05,0,0,.07-.07h0l0,0,0,0h0l0,0,0,0,.07,0,.08-.07,0,0,0,0,0,0,0,0,.05,0,.05,0,0,0,0,0,.07,0h0l0,0h0l.06,0s0,0,0,0h0s0,0,0,0l-.05.05s0,0,0,0l0,0h0l0,0h0l0,0,.07,0,0,0,0,0,.29-.13.13,0h0l.23-.06h.54l0,0h.4l.08,0h.11l.06,0,.07,0h0a1.52,1.52,0,0,1,.28.09l.06,0,0,0,0,0,.13.06.06,0,.06,0,.13.09,0,0,0,0,.06,0,0,0,0,0h0s0,0,0,.05l0,0,0,0h0l.05.06s0,0,0,0h0l0,.05,0,0h0l.06.07s0,0,0,0l0,0h0l0,0,0,.05h0l0,.07s0,0,0,0v0a1.12,1.12,0,0,1,.11.26v0s0,0,0,.05,0,0,0,.05l0,.07a.07.07,0,0,0,0,0s0,0,0,.06v0l0-.06a.11.11,0,0,0,0-.06v0l0,0s0,0,0,0,0,0,0,0h0s0,0,0,.05v0c0,.09.05.17.07.25v.13s0,.05,0,.07v.08a.28.28,0,0,1,0,.09v.16s0,0,0,0h0a0,0,0,0,0,0,0h0S203.07,149.65,203.07,149.61Zm-4-2.4Zm-1.18.78h0Zm-.24.43v0Zm.08.07h0Zm5.35,1.34h0s0,0,0,0Zm0,0h0Zm-.05.29h0Zm0,.13h0Zm.09.12h0Zm-.18.05h0v0h0v0Zm.21.31h0S203.17,150.73,203.17,150.74Zm0,0Zm-.09.09h0Zm-.4-.11h0Zm.38.19Zm-.17-.08h0S202.87,150.82,202.86,150.84Zm.15.08h0v0l0,0,0,0a0,0,0,0,0,0,0Zm-.39-.14h0Zm.13.14,0,0s0,0,0,0v0s0,0,0,0A.25.25,0,0,1,202.75,150.92Zm-.29-.13Zm.08.07h0Zm.06.08h0Zm.17.21h0Zm-.36-.23h0Zm-.07,0Zm.45.41,0,0s0,0,0,0Zm-.08,0h0s0,0,0,0h0Zm-.1-.06Zm-.37-.3Zm0,.1h0v0l0,0Zm.1.11Zm.16.19h0v0h0a0,0,0,0,0,0,0v0h0S202.54,151.42,202.54,151.43Zm.07.07h0l0,0,0,0h0Zm.08.09Zm0,0h0Zm-.18-.16Zm-.08.32h0Zm0,0h0Zm-.14-.29h0Zm.12.17,0,0,0,0,0,0h0Zm-.07-.06Zm.15.2h0S202.45,151.76,202.45,151.76Zm-.29-.29h0Zm-.17-.14s0,0,0,0h0Zm.21.24h0l0,0Zm.11.16,0,0h0Zm0,.05h0Zm0,.22h0Zm-.4-.34h0s0,0,0,0Zm.14.26h0Zm.12.2h0Zm-.45-.78h0Zm0,0h0Zm.31.57h0Zm-.15-.23Zm0,0Zm-.09-.09h0l0,0Zm.3.53h0ZM202,152h0Zm.06.16h0Zm-.4-.6h0Zm.13.18h0Zm-.2-.34Zm0,.07h0v0h0S201.56,151.49,201.56,151.49Zm0-.05h0Zm.2.41,0,0h0Zm-.27-.47Zm.06.17h0Zm0,0h0Zm.17.34Zm.16.35,0,0,0,0Zm-.26-.51h0Zm-.12-.24h0Zm-.06,0Zm.13.31h0s0,0,0,0h0S201.54,151.82,201.53,151.83Zm0,0h0Zm0,.13h0Zm-.05,0Zm-.12-.26Zm.14.72h0Zm-.17-.43h0Zm0-.06h0Zm0-.06h0Zm0,0h0Zm-.12-.16Zm.2.77h0Zm-.09-.18h0Zm.07.26h0Zm-.22-.71h0Zm.13.61h0Zm-.17.15h0Zm.12-.26h0S201.16,152.34,201.17,152.33Zm-.16-.53h0Zm0,.07h0Zm0-.07h0Zm0,.13h0Zm0,.33h0Zm-.14-.4h0Zm.07.5h0Zm-.1-.53h0S200.85,151.83,200.84,151.83Zm0,.2Zm0-.06h0Zm-.07-.07h0Zm.05.69h0Zm-.05,0h0Zm-.06-.7h0a0,0,0,0,0,0,0Zm0,.21h0Zm0-.23h0Zm0,.65h0Zm0-.42h0Zm-.06-.21h0Zm0-.06h0Zm0-.14s0,0,0,0Zm0,.19h0S200.48,151.92,200.48,151.92Zm0,.56h0Zm0-.11Zm0,0h0Zm0-.34Zm-.06.6h0Zm0-.89h0Zm0,0h0Zm-.35.94h0Zm.29-.83Zm-.22.28h0Zm-.22.4h0Zm-.05,0h0s0,0,0,0Zm-.06-.29h0Zm.16-.32h0Zm0,0h0Zm-.13.33h0Zm.15-.56h0Zm-.32.89h0Zm.17-.53h0Zm-.17.33h0Zm.15-.55Zm0-.12h0Zm-.16.28h0Zm-.22.24Zm.06-.12Zm.23-.47h0s0,0,0,0h0Zm-.07.13h0Zm.09-.26Zm-.28.49h0Zm0,0h0Zm0,0h0l0,0,0,0Zm.24-.51h0A0,0,0,0,1,199.6,151.51Zm-.16.28h0Zm-.34.63h0Zm.32-.7h0Zm.15-.3h0Zm-.57.8h0Zm.38-.69Zm.06-.13,0,0s0,0,0,0Zm-.27.23h0Zm.1,0h0Zm0,0h0Zm0,0,0,0s0,0,0,0Zm0-.11Zm.12-.21h0Zm-.21.21h0l0,0,.05,0h-.05S199.14,151.54,199.13,151.52Zm-.14.19Zm.08-.19h0S199.07,151.52,199.07,151.52Zm0-.06,0,0S199.08,151.47,199.07,151.46Zm-.32.41h0Zm.53-.68h0S199.29,151.2,199.28,151.19Zm-.57.67h0Zm-.15.15,0,0h0Zm-.07-.38,0,0h0Zm-.14.24,0,0h0Zm.69-.58h0Zm.08,0h0Zm.1-.15h0Zm-.05,0v0h0Zm-.64.64h0Zm0,0,0,0h0Zm0,0h0Zm.29-.31h0Zm0-.09h0Zm-.09,0,0,0,0,0A0,0,0,0,0,198.72,151.42Zm.41-.4h0Zm-.27.22h0Zm.12-.12Zm-.19.14Zm-.1-.12h0Zm-.58.47Zm.57-.43h0ZM199,151h0S199,151,199,151Zm-.13,0h0l0,0,0,0Zm.09-.1h0Zm-.83.57h0Zm.65-.5h0Zm-.23.15h0Zm.35-.28v0h0Zm-.75.41h0Zm-.32-.05Zm1.15-.53Zm-.37.21h0S198.57,150.9,198.56,150.9Zm0,0h0a0,0,0,0,0,0,0h0Zm-.17.1h0Zm0,0h0Zm-.24.11h0v0Zm.48-.34s0,0,0,0h0S198.64,150.74,198.63,150.73Zm-.15.08h0Zm-.11,0h0Zm-.05,0h0Zm.31-.22h0Zm-.09,0v0h0Zm-.22,0Zm-.21,0s0,0,0,0h0Zm.17-.1s0,0,0,0,0,0,0,0S198.29,150.6,198.28,150.6Zm.43-.2h0Zm-.48.19v0h0Zm0,0s0,0,0,0h0Zm-.29.11h0Zm-.39.14h0Zm0,0h0Zm1-.39h0Zm-.43-.26h0Zm-.36.4,0,0h0S197.72,150.52,197.73,150.52Zm.41-.13h0S198.14,150.4,198.14,150.39Zm-.34,0,0,.09A.36.36,0,0,0,197.8,150.42Zm.73-.24v0Zm0,0Zm-.95.16a.25.25,0,0,1,0-.07.14.14,0,0,1,0-.07h0a0,0,0,0,0,0,0,.06.06,0,0,0,0,0v.06a1.54,1.54,0,0,0,0,.17s0-.05,0-.08v0A.43.43,0,0,0,197.59,150.36Zm.8-.25h0Zm-.09.08a0,0,0,0,1,0,0h0s0,0,0,0Zm-.14,0h0Zm-.14,0h0Zm.58-.22a.2.2,0,0,0,0,.07h0V150h0Zm-.69.11h0Zm0,0v0Zm.44-.13h0Zm.11,0h0Zm-.39,0h0a.1.1,0,0,1,0,0h0s0,0,0,0Zm0-.08a0,0,0,0,0,0,0h0Zm.2,0h0Zm-.15,0h0v0Zm0,0v0A0,0,0,0,0,198.1,149.86Zm.35-.06Zm-.45,0h0Zm0-.07Zm.4,0h0s0,0,0,0v0Zm-.59,0h0Zm.52,0h0Zm0,0h0Zm0-.09v0h0Zm-.2-.08s0,0,0,0h0Zm.05,0h0Zm-.55-.13h0Zm.48,0h0v0h0v0Zm0,0h0Zm-.09-.07v0h0Zm.33.05v0h0v0Zm-1-.12h0Zm.61.09v0h0Zm.45,0h0a0,0,0,0,1,0,0h0v0h0Zm-.35-.05v0Zm-.66-.14v0h0Zm.76.12Zm-.35-.11v0h0Zm.55.07h0v0h0S198.38,149.22,198.39,149.2Zm0,0v0h0a0,0,0,0,0,0,0Zm-.32-.31,0,0h0Zm-.27-.12v0Zm-.33,0h0a.16.16,0,0,0,0-.09h0s0,0,0,0v.08Zm.24.17v0Zm-.08,0h0Zm.9.21h0Zm-.47-.14s0,0,0,0a0,0,0,0,0,0,0Zm-.09-.05v0h0Zm.55.12h0v0h0Zm.09,0v0h0Zm-.72-.22h0Zm.2,0a0,0,0,0,0,0,0h0A0,0,0,0,0,198.08,148.86Zm.48.13v0h0Zm-.24-.07v0h0Zm.17,0h0Zm-.23-.1h0Zm.24.06h0Zm-.36-.14s0,0,0,0h0Zm-.59-.29h0Zm1,.42v0Zm-.84-.39h0l0,0,0,0Zm.92.35h0Zm-.82-.35h0Zm.26.08Zm.51.22Zm-.4-.19h0Zm.61.21h0Zm-.13-.06Zm-.17-.13,0,0Zm-.38-.2h0Zm.08,0h0v0A0,0,0,0,1,198.2,148.44Zm.07.05h0Zm.18.07h0Zm.12,0h0Zm-.48-.37s0,0,0,0h0Zm.59.32h0Zm-.31-.15h0Zm.3.23h0Zm-.16-.15h0l0,0h0Zm.3.12h0Zm.07,0h0v0Zm-.58-.36h0s0,0,0,0Zm.12.06h0Zm-.2-.12a.07.07,0,0,1,0,.06s0,0,0,0,0,0,0,0S198.23,148.21,198.22,148.2Zm-.12-.18h0Zm.39.15h0Zm.33.27h0Zm-.15-.1Zm-.28-.22h0Zm.2.1a0,0,0,0,0,0,0h0Zm.43.27h0Zm-.6-.48h0Zm.22.15h0Zm-.23-.31s0,0,0,0h0l0,0,0,0Zm-.13-.06h0Zm.3.24Zm-.12-.05h0v0Zm.6.44h0Zm-.07-.08v0h0Zm-.11-.1h0Zm-.26-.22v0s0,0,0,0S198.63,148,198.62,148Zm-.06-.08h0A0,0,0,0,1,198.56,147.94Zm.1.07Zm.4.32,0,0h0Zm-.51-.49h0l-.05,0,.05,0h0Zm.11-.07Zm-.13-.09h0Zm0,.06,0,0h0Zm.35.29,0,0,0,0Zm.06,0h0Zm0,0h0Zm-.27-.29Zm.08-.19h0Zm.42.54,0,.05Zm0-.07h0Zm-.32-.43,0,0h0a0,0,0,0,0,0,0Zm0,0h0Zm0-.15h0l.05,0,0,0h0s0,0,0,0Zm.06.06,0,0h0Zm0-.05h0Zm0,0h0Zm0,0h0s0,0,0,0Zm.17.19v0h0Zm.1.1h0Zm-.12-.26Zm.11.23,0,0h0Zm.16.17h0Zm-.22-.37h0Zm.15.17h0Zm.06-.2h0Zm.12,0h0Zm-.14-.33h0Zm.3.47h0Zm-.09-.22,0,0h0Zm-.07-.17h0Zm.15.24h0Zm0,0h0Zm0-.08Zm.07,0h0Zm0-.28h0s0,0,0,0Zm0-.1h0Zm.08.2h0S199.84,147.21,199.85,147.2Zm.06.15h0Zm1.11-.15h0Zm0-.17h0Zm-.16.15h0S200.83,147.18,200.84,147.18Zm-.06,0Zm0-.1h0Zm-.06-.06h0Zm-.13,0h0Zm0,.13Zm-.07-.17h0Zm0,.07Zm0,.24h0Zm0-.32s0,0,0,0Zm-.13.17h0Zm0,0h0Zm0,.06h0Zm-.09-.27Zm0,.11h0Zm-.07-.19h0Zm-.05.1h0Zm0,0h0Zm0,.16ZM200,147h0Zm0,0Zm0-.1Zm-.07.08Zm.07.12h0Zm0-.18h0Zm.1.37h0Zm.13.13h0s0,0,0,0l0,0Zm.2,0h0Zm.22,0h0Zm.08,0h0Zm.06,0Zm.32-.16h-.89l.17,0,.24,0H201Zm.11-.22Zm0,.2Zm0,.25h0Zm0,0h0l0,0,0,0h0Zm.11,0h0Zm.09-.28h0Zm0,0h0Zm0-.05Zm0,0-.06,0Zm.2.22h0Zm.07-.13h0Zm.08.38Zm.22-.22h0s0,0,0,0h0Zm-.08.18h-.07l0,0h.05Zm.09-.07h0s0,0,0,0Zm.1-.06h0Zm0,.22,0,0Zm0,.16Zm.15,0h0Zm.2-.06h0Zm-.09.26h0Zm.15,0h0Zm0,0h0s0,0,0,0v0Zm.13,0s0,0,0,0h0Zm-.12.21h0Zm.07,0h0Zm.11.18h0Zm.07,0h0Zm0,.15h0Zm.19-.07Zm0,.06h0v0h0v0Zm-.08.09h0a0,0,0,0,1,0,0S202.82,148.69,202.82,148.7Zm0,0Zm.06,0,0,0h0Zm0,0v0Zm0,.09h0Zm0,.12h0Z" transform="translate(-197.3 -146.86)"/><path class="cls-4" d="M202.83,150.72h0S202.83,150.72,202.83,150.72Z" transform="translate(-197.3 -146.86)"/><path class="cls-5" d="M202.21,149a.79.79,0,0,0-.13-.4.74.74,0,0,0-.55-.28c-.2,0-.4,0-.61,0h-.07a4.87,4.87,0,0,0-.54,0,.67.67,0,0,0-.6.51,2.58,2.58,0,0,0,0,.39v.62c0,.12,0,.25,0,.37a.67.67,0,0,0,.51.6,1.29,1.29,0,0,0,.39,0h.63a2.17,2.17,0,0,0,.36,0,.66.66,0,0,0,.62-.59,2.3,2.3,0,0,0,0-.37C202.22,149.57,202.23,149.28,202.21,149Zm-.22.75c0,.13,0,.27,0,.4a.51.51,0,0,1-.15.35.46.46,0,0,1-.27.11,1.46,1.46,0,0,1-.3,0h-.63a1.83,1.83,0,0,1-.33,0,.45.45,0,0,1-.38-.41c0-.1,0-.2,0-.3v-.63c0-.11,0-.22,0-.33a.43.43,0,0,1,.4-.38,1.51,1.51,0,0,1,.3,0h.89a.48.48,0,0,1,.35.16.55.55,0,0,1,.11.3C202,149.25,202,149.49,202,149.74Z" transform="translate(-197.3 -146.86)"/><path class="cls-6" d="M201.63,149.05a.15.15,0,0,1-.15-.16.15.15,0,0,1,.15-.15.15.15,0,0,1,.15.15A.15.15,0,0,1,201.63,149.05Z" transform="translate(-197.3 -146.86)"/><path class="cls-7" d="M201,148.92a.66.66,0,0,0-.66.65.67.67,0,0,0,.66.66.66.66,0,0,0,0-1.31Zm0,1.08a.43.43,0,0,1-.43-.43.43.43,0,0,1,.43-.42.43.43,0,0,1,0,.85Z" transform="translate(-197.3 -146.86)"/></svg>