<svg id="Capa_1" data-name="Capa 1" xmlns="http://www.w3.org/2000/svg" xmlns:xlink="http://www.w3.org/1999/xlink" viewBox="0 0 3.56 3.55"><defs><style>.cls-1{fill:url(#linear-gradient);}.cls-2,.cls-3,.cls-4,.cls-5{fill-rule:evenodd;}.cls-2{fill:url(#radial-gradient);}.cls-3{fill:url(#radial-gradient-2);}.cls-4{fill:url(#radial-gradient-3);}.cls-5{fill:url(#radial-gradient-4);}</style><linearGradient id="linear-gradient" x1="198.49" y1="149.78" x2="202.05" y2="149.78" gradientUnits="userSpaceOnUse"><stop offset="0" stop-color="#b47a1a"/><stop offset="0.05" stop-color="#b9811e"/><stop offset="0.13" stop-color="#c69429"/><stop offset="0.22" stop-color="#dcb33c"/><stop offset="0.32" stop-color="#fade56"/><stop offset="0.33" stop-color="#ffe55a"/><stop offset="0.52" stop-color="#ffec88"/><stop offset="0.66" stop-color="#ffe55a"/><stop offset="1" stop-color="#b47a1a"/></linearGradient><radialGradient id="radial-gradient" cx="200.27" cy="149.79" r="0.96" gradientUnits="userSpaceOnUse"><stop offset="0" stop-color="#232323"/><stop offset="0.37" stop-color="#151515"/><stop offset="1"/></radialGradient><radialGradient id="radial-gradient-2" cx="200.74" cy="149.24" r="0.43" xlink:href="#radial-gradient"/><radialGradient id="radial-gradient-3" cx="200.63" cy="149.37" r="0.31" xlink:href="#radial-gradient"/><radialGradient id="radial-gradient-4" cx="200.52" cy="149.5" r="0.2" xlink:href="#radial-gradient"/></defs><title>what</title><path class="cls-1" d="M202.05,149.78a1.78,1.78,0,1,1-1.78-1.78A1.78,1.78,0,0,1,202.05,149.78Z" transform="translate(-198.49 -148)"/><path class="cls-2" d="M200.78,150.72a.76.76,0,0,1-.21,0,2,2,0,0,1-1.06-.79,1.11,1.11,0,0,1-.23-.46.54.54,0,0,1,.18-.52.3.3,0,0,1,.26,0,.12.12,0,0,1,.05.05c0,.14.11.27.16.41s0,0,0,.07a1.77,1.77,0,0,1-.12.17s0,.06,0,.11a1.36,1.36,0,0,0,.66.57.09.09,0,0,0,.11,0l.14-.18a.09.09,0,0,1,.12,0l.28.13.06,0c.1.05.1.05.09.16s-.17.31-.36.36Z" transform="translate(-198.49 -148)"/><path class="cls-3" d="M201,149.11a.81.81,0,0,1,.17.24.88.88,0,0,1,.07.23s0,0,0,0h-.13s0,0,0,0a.71.71,0,0,0-.74-.62h0a.66.66,0,0,1,0-.14,0,0,0,0,1,0,0,.8.8,0,0,1,.27,0,.72.72,0,0,1,.2.09.1.1,0,0,1,.05,0,.15.15,0,0,1,.06.05Z" transform="translate(-198.49 -148)"/><path class="cls-4" d="M200.75,149.23a.63.63,0,0,1,.21.39s0,0,0,0h-.11s0,0,0,0a.48.48,0,0,0-.2-.32.42.42,0,0,0-.28-.08s0,0,0,0a.49.49,0,0,0,0-.12l0,0A.71.71,0,0,1,200.75,149.23Z" transform="translate(-198.49 -148)"/><path class="cls-5" d="M200.58,149.68a.23.23,0,0,0-.24-.22s0,0,0,0,0-.08,0-.12a0,0,0,0,1,0,0,.4.4,0,0,1,.4.35h-.15Z" transform="translate(-198.49 -148)"/></svg>